<?xml version="1.0" standalone="no"?>
<!DOCTYPE svg PUBLIC "-//W3C//DTD SVG 20010904//EN"
 "http://www.w3.org/TR/2001/REC-SVG-20010904/DTD/svg10.dtd">
<svg version="1.0" xmlns="http://www.w3.org/2000/svg"
 width="179.000000pt" height="168.000000pt" viewBox="0 0 179.000000 168.000000"
 preserveAspectRatio="xMidYMid meet">

<g transform="translate(0.000000,168.000000) scale(0.100000,-0.100000)"
fill="#000000" stroke="none">
<path d="M0 1405 l0 -275 71 0 71 0 -6 -72 c-9 -111 -24 -200 -34 -207 -15
-10 -21 -63 -9 -82 16 -26 -2 -38 -19 -14 -11 15 -17 17 -23 7 -6 -10 -10 -10
-21 2 -7 9 -16 13 -21 10 -5 -3 -9 -177 -9 -390 l0 -384 895 0 895 0 0 100 c0
98 -3 106 -33 101 -5 -1 -6 3 -2 9 3 5 2 10 -4 10 -5 0 -12 -4 -15 -9 -8 -12
-57 -1 -63 15 -4 10 -10 11 -24 3 -13 -6 -19 -6 -19 1 0 5 6 10 13 10 6 0 3 6
-7 12 -17 10 -14 13 29 30 l49 19 18 -23 c10 -13 16 -29 13 -36 -3 -7 0 -10 5
-7 6 3 10 2 10 -3 0 -6 7 -13 15 -16 14 -5 15 9 14 104 0 62 -5 107 -10 104
-5 -3 -9 0 -9 6 0 6 -4 9 -9 6 -5 -3 -14 1 -21 9 -7 8 -17 12 -23 8 -6 -4 -8
2 -5 15 8 29 -7 37 -24 14 -7 -10 -19 -22 -26 -26 -11 -7 -12 -4 -3 13 6 11
20 25 31 31 27 14 25 30 -2 30 -20 0 -23 5 -23 40 -1 27 3 40 13 40 9 0 11 -7
7 -20 -4 -11 -2 -20 4 -20 6 0 11 14 11 30 0 27 -3 30 -34 30 -21 0 -36 6 -40
15 -6 18 -2 19 27 4 21 -10 21 -10 3 5 -11 9 -16 19 -12 23 4 5 16 -3 27 -16
11 -13 23 -21 27 -17 4 4 -1 12 -11 17 -21 12 -23 31 -2 23 11 -5 13 -2 9 10
-3 9 -10 14 -15 11 -4 -3 -13 3 -18 14 -16 29 -13 38 3 15 20 -26 41 -6 30 27
-4 13 -8 29 -9 34 0 6 -6 10 -12 9 -7 -1 -23 -2 -35 -3 -13 -1 -18 -4 -12 -9
6 -4 7 -17 3 -32 -4 -14 -7 -22 -8 -18 -1 4 -12 3 -26 -2 -16 -6 -25 -6 -25 0
0 6 6 10 14 10 10 0 14 10 14 30 -1 16 4 35 9 42 21 27 25 88 7 115 -16 26
-17 26 -118 20 -55 -4 -118 -10 -140 -13 -37 -7 -38 -6 -27 15 10 18 9 21 -6
21 -15 1 -14 3 5 13 12 7 19 16 16 20 -4 4 0 7 8 7 31 0 108 83 126 135 21 60
39 66 111 34 40 -17 54 -30 68 -60 18 -38 19 -38 76 -39 l57 0 0 295 0 295
-895 0 -895 0 0 -275z m655 114 c85 -26 153 -76 200 -145 21 -33 55 -72 73
-88 38 -33 62 -81 61 -123 0 -24 -3 -21 -14 16 -30 95 -123 137 -207 93 -44
-23 -49 -18 -12 11 24 18 25 21 9 27 -24 9 -75 0 -75 -13 0 -6 7 -18 16 -28 9
-10 13 -23 9 -29 -5 -8 -18 1 -37 24 -36 44 -72 64 -124 68 -21 2 -45 9 -52
16 -18 16 -47 15 -80 -2 -26 -13 -28 -12 -66 31 -21 24 -38 54 -38 67 0 14 -7
22 -19 23 -12 1 -17 -3 -13 -10 5 -9 3 -9 -6 0 -11 10 -17 10 -29 0 -14 -11
-14 -10 -2 5 7 10 16 16 20 14 4 -3 13 -1 21 4 9 5 19 5 26 -1 8 -7 14 -6 19
1 3 5 1 10 -4 10 -6 0 -11 5 -11 11 0 5 5 7 10 4 6 -3 10 -2 10 3 0 9 54 26
110 36 42 7 141 -5 205 -25z m633 -46 c-10 -2 -26 -2 -35 0 -10 3 -2 5 17 5
19 0 27 -2 18 -5z m-61 -9 c-3 -3 -12 -4 -19 -1 -8 3 -5 6 6 6 11 1 17 -2 13
-5z m143 -9 c32 -18 25 -18 -25 0 -22 8 -31 14 -20 14 11 0 31 -6 45 -14z m-2
-21 c12 -8 22 -12 22 -8 0 3 8 0 17 -7 11 -10 14 -10 9 -1 -4 6 -5 12 -2 12 7
0 51 -74 48 -82 -1 -4 20 -19 47 -33 27 -13 53 -30 56 -36 6 -8 2 -8 -13 0
-26 14 -35 14 -27 1 3 -6 -1 -7 -9 -4 -21 8 -20 -6 0 -20 14 -11 14 -13 0 -25
-14 -12 -17 -9 -22 18 -4 17 -11 34 -16 37 -5 3 -6 -5 -2 -19 3 -14 1 -34 -6
-44 -10 -16 -10 -16 -5 5 8 27 -10 29 -25 3 -7 -14 -6 -21 3 -24 6 -3 8 -6 2
-6 -29 -2 -35 15 -20 53 9 21 14 43 11 49 -2 7 -5 5 -5 -4 -1 -9 -7 -16 -14
-16 -8 0 -11 11 -9 32 6 48 -22 93 -71 116 -36 16 -38 19 -17 19 14 0 36 -7
48 -16z m-268 -28 c0 -2 -8 -10 -17 -17 -16 -13 -17 -12 -4 4 13 16 21 21 21
13z m-7 -61 c-3 -9 -8 -14 -10 -11 -3 3 -2 9 2 15 9 16 15 13 8 -4z m237 -15
c0 -5 -6 -10 -14 -10 -8 0 -18 5 -21 10 -3 6 3 10 14 10 12 0 21 -4 21 -10z
m-840 -5 c0 -2 -10 -10 -22 -16 -21 -11 -22 -11 -9 4 13 16 31 23 31 12z m785
-5 c-3 -5 2 -10 12 -10 15 0 16 -2 3 -10 -12 -8 -11 -10 6 -10 21 0 34 -17 34
-46 0 -8 -6 -14 -13 -14 -7 0 -17 -10 -22 -22 -13 -30 -75 -39 -130 -19 -22 8
-42 16 -44 17 -5 5 22 29 47 43 26 14 30 36 5 28 -10 -2 -25 -7 -33 -9 -8 -3
-12 -3 -7 -1 4 3 5 9 2 14 -11 16 58 49 103 49 26 0 41 -4 37 -10z m-186 -31
c0 13 4 22 7 18 9 -9 -7 -68 -17 -61 -5 3 -8 22 -8 42 l1 37 8 -30 c7 -27 8
-27 9 -6z m-478 1 c23 -13 25 -30 3 -30 -13 0 -14 -3 -5 -14 9 -11 9 -15 -1
-18 -10 -4 -8 -11 5 -31 22 -33 21 -38 -3 -65 -12 -12 -17 -22 -13 -23 12 -2
-39 -17 -60 -18 -10 -1 -15 3 -12 9 3 5 -6 12 -20 16 -35 9 -47 36 -39 90 7
51 26 66 85 67 30 1 36 3 27 14 -13 16 4 18 33 3z m270 -40 c10 -6 19 -15 19
-21 0 -6 -4 -8 -9 -5 -5 3 -11 -9 -15 -26 -5 -24 -1 -36 14 -50 21 -19 21 -20
2 -51 -14 -25 -27 -33 -59 -37 -32 -5 -40 -3 -39 10 1 8 -6 14 -16 14 -9 -1
-19 5 -22 13 -4 9 -1 12 7 8 6 -4 5 0 -4 7 -22 18 -15 76 11 103 14 13 32 19
61 18 34 -2 39 0 29 12 -15 18 -6 19 21 5z m844 -40 c3 -5 -1 -10 -9 -10 -9 0
-16 5 -16 10 0 6 4 10 9 10 6 0 13 -4 16 -10z m-1209 -136 c39 -7 56 -24 24
-24 -38 0 -110 53 -110 81 0 6 12 -3 26 -20 15 -18 39 -33 60 -37z m257 -26
c12 -7 42 -15 67 -19 l45 -6 -51 -2 c-44 -1 -56 3 -83 28 -17 16 -31 35 -31
42 0 8 7 3 16 -9 8 -12 25 -27 37 -34z m197 -23 c-13 -54 -13 -55 21 -117 32
-59 34 -68 32 -151 -1 -62 -7 -96 -19 -116 -19 -32 -50 -46 -61 -28 -10 17
-20 -32 -15 -75 2 -21 8 -35 13 -32 5 3 9 -3 10 -13 1 -13 3 -11 9 7 6 18 8 3
9 -50 0 -52 -2 -70 -9 -60 -8 13 -10 13 -10 -1 0 -11 -10 -16 -30 -17 -34 -1
-33 -4 -32 95 1 74 -13 143 -28 143 -4 0 -10 -26 -13 -57 -2 -32 -8 -69 -12
-82 -6 -17 -5 -22 3 -17 14 8 14 -1 2 -29 -5 -11 -9 -14 -9 -8 -1 9 -13 11
-36 8 -33 -4 -47 7 -26 19 5 3 7 15 4 27 -5 17 -11 19 -42 14 -33 -5 -37 -4
-38 16 -1 15 1 19 8 12 6 -6 24 -7 42 -3 24 5 31 11 29 25 -2 10 2 22 10 26
10 7 9 9 -4 9 -17 0 -17 1 0 19 33 37 41 49 36 54 -3 3 4 10 15 17 12 6 21 18
21 26 0 9 5 12 12 8 8 -5 9 -2 5 9 -3 10 -3 17 2 17 12 0 19 57 9 72 -6 10 -8
10 -8 -1 0 -8 -11 -29 -25 -47 -14 -18 -25 -38 -25 -44 0 -6 -5 -8 -10 -5 -6
3 -13 0 -16 -9 -3 -8 -12 -12 -19 -10 -7 3 -16 0 -20 -5 -3 -6 -11 -8 -17 -5
-7 5 -9 1 -5 -9 5 -14 3 -15 -12 -6 -17 11 -17 15 3 80 13 45 17 72 10 79 -13
13 -105 30 -165 30 -26 0 -51 5 -54 11 -4 6 -19 7 -36 4 l-29 -7 17 35 c13 25
31 39 68 54 49 19 52 19 90 2 22 -10 63 -18 91 -18 41 -1 56 4 75 23 13 13 40
29 60 36 20 7 56 34 80 59 24 26 46 45 48 44 2 -2 -2 -28 -9 -58z m602 -102
c35 -31 22 -39 -76 -40 -75 -1 -96 1 -100 13 -14 37 139 61 176 27z m-195 -49
c-3 -3 -20 -4 -39 -2 l-33 4 35 16 c31 15 35 15 38 1 2 -8 2 -17 -1 -19z
m-944 -46 c-10 -34 -13 -72 -10 -105 3 -30 1 -53 -4 -53 -5 0 -9 7 -9 17 0 9
-3 13 -7 10 -3 -4 -12 -2 -20 4 -15 13 -18 55 -3 64 6 3 10 14 10 24 0 10 9
26 20 36 11 10 20 26 20 37 0 10 4 18 9 18 6 0 3 -24 -6 -52z m779 -60 c22
-17 22 -18 3 -18 -28 0 -42 11 -54 43 -17 44 -13 55 9 22 10 -16 30 -37 42
-47z m362 12 c5 -5 6 -13 1 -17 -4 -5 -10 -2 -12 5 -7 18 -30 15 -42 -5 -7
-12 -10 -14 -11 -4 0 11 -17 12 -87 7 -62 -5 -84 -4 -73 3 8 6 29 11 47 11 17
0 35 5 38 11 8 13 124 4 139 -11z m90 -4 c-3 -9 -10 -16 -15 -16 -5 0 -4 9 3
20 14 22 21 20 12 -4z m-32 -68 c-7 -7 -12 -8 -12 -2 0 14 12 26 19 19 2 -3
-1 -11 -7 -17z m-22 -12 c0 -3 -4 -8 -10 -11 -5 -3 -10 -1 -10 4 0 6 5 11 10
11 6 0 10 -2 10 -4z m-995 -36 c4 -6 -7 -10 -24 -10 -17 0 -31 5 -31 10 0 6
11 10 24 10 14 0 28 -4 31 -10z m992 -5 c0 -8 -4 -12 -9 -9 -5 3 -6 10 -3 15
9 13 12 11 12 -6z m-832 -45 c3 -5 1 -10 -4 -10 -6 0 -11 5 -11 10 0 6 2 10 4
10 3 0 8 -4 11 -10z m-685 -89 c0 -107 -4 -119 -34 -114 -21 4 -22 8 -18 76 2
40 8 74 13 75 5 2 9 12 9 21 0 19 8 31 22 31 4 0 8 -40 8 -89z m644 32 c-18
-18 -29 -16 -14 2 10 13 9 15 -11 16 -22 0 -22 1 -4 8 26 10 47 -8 29 -26z
m302 -88 c2 -49 -1 -85 -6 -85 -6 0 -10 6 -10 13 0 9 -2 9 -9 -1 -8 -13 -5 73
5 137 9 54 17 27 20 -64z m539 77 c-3 -3 -11 0 -18 7 -9 10 -8 11 6 5 10 -3
15 -9 12 -12z m-815 -12 c0 -5 -4 -10 -10 -10 -5 0 -10 5 -10 10 0 6 5 10 10
10 6 0 10 -4 10 -10z m890 0 c0 -5 -7 -7 -15 -4 -8 4 -15 8 -15 10 0 2 7 4 15
4 8 0 15 -4 15 -10z m-902 -80 c-7 -11 -22 -20 -33 -20 -19 1 -19 2 4 20 30
26 45 26 29 0z m1003 -60 c7 0 10 -3 7 -6 -11 -10 -46 19 -40 34 4 12 7 10 13
-6 5 -12 14 -22 20 -22z m-974 -2 c-3 -8 -6 -5 -6 6 -1 11 2 17 5 13 3 -3 4
-12 1 -19z m182 -85 c0 -44 -3 -53 -10 -38 -8 18 -9 17 -6 -6 2 -16 -1 -26
-10 -26 -12 0 -11 34 3 105 9 44 24 21 23 -35z m125 30 c17 -21 17 -21 -3 -16
-13 3 -21 13 -21 26 0 11 1 18 3 16 1 -2 10 -14 21 -26z m-244 -7 c0 -6 -66
-46 -76 -46 -5 0 7 11 26 25 33 23 50 30 50 21z m355 -56 c8 0 15 -4 15 -9 0
-10 -50 -2 -67 12 -24 18 -13 29 12 13 13 -9 31 -16 40 -16z m-463 -7 c-6 -2
-10 -8 -8 -11 2 -4 -7 -8 -20 -8 -13 -1 -24 0 -24 2 0 6 42 23 55 23 6 -1 4
-3 -3 -6z"/>
<path d="M332 1457 c-8 -10 -6 -13 9 -13 20 0 25 11 10 20 -5 3 -13 0 -19 -7z"/>
<path d="M1490 1300 c0 -6 7 -10 15 -10 8 0 15 2 15 4 0 2 -7 6 -15 10 -8 3
-15 1 -15 -4z"/>
<path d="M470 869 c0 -5 5 -7 10 -4 6 3 10 8 10 11 0 2 -4 4 -10 4 -5 0 -10
-5 -10 -11z"/>
<path d="M1784 575 c0 -55 1 -76 3 -47 2 29 2 74 0 100 -2 26 -3 2 -3 -53z"/>
<path d="M1698 223 c7 -3 16 -2 19 1 4 3 -2 6 -13 5 -11 0 -14 -3 -6 -6z"/>
</g>
</svg>
